<svg id="SvgjsSvg1001" width="288" height="288" xmlns="http://www.w3.org/2000/svg" version="1.1" xmlnsXlink="http://www.w3.org/1999/xlink" xmlnsSvgjs="http://svgjs.com/svgjs"><defs id="SvgjsDefs1002"></defs><g id="SvgjsG1008"><svg xmlns="http://www.w3.org/2000/svg" width="288" height="288" data-name="Layer 1" viewBox="0 0 24 24"><path d="m12 0a12 12 0 1 0 12 12 12.013 12.013 0 0 0 -12-12zm0 22a10 10 0 1 1 10-10 10.011 10.011 0 0 1 -10 10zm5-10a1 1 0 0 1 -1 1h-3v3a1 1 0 0 1 -2 0v-3h-3a1 1 0 0 1 0-2h3v-3a1 1 0 0 1 2 0v3h3a1 1 0 0 1 1 1z" fill="#007bff" class="color000 svgShape"></path></svg></g></svg>